<svg width="292" height="292" viewBox="0 0 292 292" fill="none" xmlns="http://www.w3.org/2000/svg">
<path d="M100.685 147.065C100.685 147.065 90.5184 157.084 90.3949 157.206C85.1264 162.398 85.795 170.18 90.9915 175.453C96.188 180.726 103.96 181.508 109.228 176.316L138.628 147.342L110.379 118.677C105.182 113.404 96.6754 113.346 91.4069 118.538C86.1383 123.731 86.0719 132.237 91.2684 137.51C91.3915 137.635 100.685 147.065 100.685 147.065Z" fill="#F497B0"/>
<path d="M191.255 140.486L191.404 120.034L200.16 120.098L200.096 128.854L214.69 128.961L214.754 120.205L223.51 120.269L223.361 140.72" fill="#EDDC67"/>
<path d="M190.519 141.21C190.334 141.022 190.221 140.763 190.221 140.478L190.37 120.027C190.375 119.458 190.841 118.998 191.41 119.003L200.166 119.066C200.735 119.071 201.194 119.537 201.19 120.106L201.134 127.829L213.664 127.92L213.72 120.197C213.724 119.628 214.19 119.169 214.76 119.173L223.516 119.237C224.085 119.241 224.544 119.707 224.54 120.276L224.391 140.728C224.387 141.297 223.921 141.756 223.351 141.752C222.782 141.748 222.323 141.282 222.327 140.713L222.469 121.294L215.778 121.244L215.721 128.967C215.717 129.536 215.251 129.995 214.682 129.991L200.088 129.885C199.519 129.881 199.06 129.415 199.064 128.845L199.121 121.122L192.428 121.074L192.286 140.492C192.282 141.061 191.816 141.52 191.247 141.516C190.962 141.515 190.705 141.398 190.519 141.21Z" fill="#1F212B"/>
<path d="M199.319 135.416C199.133 135.228 199.02 134.969 199.02 134.684L199.063 128.847C199.067 128.278 199.533 127.818 200.102 127.823C200.672 127.827 201.131 128.293 201.127 128.862L201.084 134.699C201.08 135.268 200.614 135.728 200.045 135.724C199.762 135.722 199.504 135.604 199.319 135.416Z" fill="#1F212B"/>
<path d="M213.912 135.523C213.727 135.335 213.614 135.075 213.614 134.791L213.657 128.953C213.661 128.384 214.127 127.925 214.696 127.929C215.265 127.933 215.724 128.399 215.72 128.968L215.678 134.806C215.674 135.375 215.208 135.834 214.638 135.83C214.355 135.828 214.098 135.711 213.912 135.523Z" fill="#1F212B"/>
<path d="M151.07 142.325L119.199 109.985C109.213 99.8518 92.8475 99.7324 82.7147 109.718C72.582 119.704 72.4625 136.069 82.4485 146.202C82.7005 146.458 83.1728 146.937 83.1728 146.937C83.1728 146.937 82.7298 147.446 82.474 147.698C72.3413 157.684 72.2218 174.05 82.2078 184.182C92.1937 194.315 108.523 194.398 118.656 184.412L150.996 152.54L151.07 142.325ZM91.0191 175.481C85.827 170.213 85.3917 162.656 90.3951 157.206L100.685 147.065C100.685 147.065 91.4264 137.67 91.3047 137.547C86.1126 132.278 86.1385 123.731 91.407 118.538C96.6755 113.346 105.223 113.445 110.415 118.714L138.634 147.348L109.228 176.316C103.96 181.508 96.2113 180.75 91.0191 175.481Z" fill="#F9E65C"/>
<path d="M80.7017 185.594C70.1566 174.894 70.0467 157.752 80.2805 146.916C70.206 135.932 70.566 118.793 81.2662 108.248C92.2089 97.4641 109.885 97.5931 120.669 108.536L152.54 140.876C152.924 141.266 153.139 141.793 153.134 142.34L153.059 152.555C153.057 153.103 152.834 153.626 152.445 154.01L120.104 185.882C109.162 196.666 91.4859 196.537 80.7017 185.594ZM117.729 111.433C108.543 102.112 93.4849 102.002 84.1636 111.188C74.8423 120.375 74.7324 135.432 83.9186 144.754L84.643 145.489C85.4427 146.3 85.4331 147.608 84.6217 148.407L83.8867 149.132C74.5654 158.318 74.4555 173.376 83.6417 182.697C92.828 192.018 107.886 192.128 117.207 182.942L148.939 151.67L149.001 143.165L117.729 111.433ZM89.5218 176.902C83.5299 170.822 83.6016 161.004 89.6815 155.012L97.7666 147.044L89.7987 138.959C83.8068 132.879 83.8785 123.06 89.9584 117.068C96.0384 111.076 105.857 111.148 111.849 117.228L140.099 145.893C140.898 146.705 140.889 148.012 140.077 148.812L111.412 177.062C105.332 183.054 95.5136 182.982 89.5218 176.902ZM108.909 120.126C104.515 115.667 97.3144 115.614 92.8559 120.008C88.3973 124.402 88.3448 131.603 92.7387 136.061L102.155 145.616C102.955 146.428 102.945 147.735 102.134 148.535L92.5789 157.952C88.1204 162.346 88.0679 169.546 92.4618 174.005C96.8557 178.463 104.056 178.516 108.515 174.122L135.71 147.321L108.909 120.126Z" fill="#1F212B"/>
<path d="M160.608 140.242L236.495 140.869L236.389 155.316L160.502 154.835" fill="#F9E65C"/>
<path d="M160.488 156.9L160.514 152.772L234.34 153.24L234.416 142.917L160.59 142.308L160.625 138.18L236.511 138.806C237.649 138.818 238.565 139.747 238.558 140.886L238.452 155.334C238.444 156.472 237.515 157.391 236.375 157.384L160.488 156.9Z" fill="#1F212B"/>
<path d="M152.427 161.344C151.5 160.403 150.932 159.109 150.942 157.684L151.091 137.253C151.11 134.403 153.437 132.11 156.288 132.132C159.138 132.152 161.433 134.48 161.409 137.329L161.26 157.76C161.24 160.61 158.913 162.903 156.063 162.881C154.64 162.872 153.354 162.285 152.427 161.344Z" fill="#FEF6AA"/>
<path d="M150.957 162.793C149.603 161.418 148.864 159.599 148.88 157.668L149.029 137.237C149.043 135.308 149.808 133.499 151.182 132.145C152.557 130.79 154.376 130.052 156.305 130.066C160.16 130.092 163.505 133.484 163.475 137.344L163.326 157.775C163.312 159.704 162.547 161.513 161.173 162.867C159.798 164.222 157.979 164.96 156.049 164.946C154.12 164.932 152.312 164.167 150.957 162.793ZM158.456 135.118C157.875 134.529 157.101 134.202 156.275 134.196C155.446 134.19 154.666 134.507 154.078 135.086C153.49 135.666 153.162 136.441 153.156 137.267L153.007 157.698C152.993 159.351 154.426 160.805 156.08 160.816C156.909 160.822 157.689 160.505 158.277 159.926C158.865 159.346 159.193 158.571 159.199 157.745L159.348 137.314C159.353 136.486 159.037 135.707 158.456 135.118Z" fill="#1F212B"/>
<path d="M95.438 171.144C92.642 168.307 92.6393 163.688 95.4764 160.892L109.443 147.13L95.7135 133.199C92.9175 130.362 92.951 125.78 95.7881 122.984C98.6252 120.188 103.208 120.221 106.004 123.058L129.158 146.553C129.558 146.959 129.543 147.603 129.137 148.002C128.732 148.402 128.088 148.408 127.688 148.002L104.535 124.508C102.539 122.483 99.2639 122.459 97.2382 124.455C95.2126 126.451 95.1887 129.726 97.185 131.752L111.636 146.415C112.036 146.821 112.032 147.473 111.627 147.873L96.9266 162.36C94.8979 164.359 94.9117 167.67 96.9081 169.695C98.9044 171.721 102.143 171.708 104.169 169.712L107.1 166.823C107.501 166.419 108.155 166.415 108.559 166.816C109.048 167.195 108.969 167.87 108.566 168.276L105.626 171.173C102.78 173.978 98.2341 173.981 95.438 171.144Z" fill="#1F212B"/>
<path d="M111.508 163.928C111.108 163.522 111.113 162.868 111.519 162.468L115.929 158.122C116.334 157.722 116.988 157.727 117.388 158.133C117.788 158.538 117.783 159.192 117.377 159.592L112.967 163.938C112.562 164.338 111.908 164.333 111.508 163.928Z" fill="#1F212B"/>
<path d="M120.328 155.235C119.928 154.83 119.933 154.176 120.338 153.776L121.808 152.327C122.214 151.927 122.868 151.932 123.268 152.338C123.668 152.744 123.663 153.397 123.257 153.797L121.787 155.246C121.381 155.646 120.728 155.641 120.328 155.235Z" fill="#1F212B"/>
</svg>
